<svg width="24" height="24" viewBox="0 0 24 24" fill="none" xmlns="http://www.w3.org/2000/svg">
<path d="M7.04996 14.1214L4.92996 16.2434L7.75796 19.0714L19.071 7.75743L16.243 4.93043L14.12 7.05044L15.535 8.46443L14.12 9.88043L12.706 8.46544L11.292 9.88043L12.706 11.2944L11.292 12.7084L9.87796 11.2944L8.46296 12.7084L9.87796 14.1224L8.46296 15.5374L7.04996 14.1204V14.1214ZM16.95 2.80843L21.192 7.05044C21.3794 7.23796 21.4847 7.49227 21.4847 7.75743C21.4847 8.0226 21.3794 8.27691 21.192 8.46443L8.46396 21.1924C8.27643 21.3799 8.02212 21.4852 7.75696 21.4852C7.49179 21.4852 7.23749 21.3799 7.04996 21.1924L2.80796 16.9504C2.62049 16.7629 2.51517 16.5086 2.51517 16.2434C2.51517 15.9783 2.62049 15.724 2.80796 15.5364L15.536 2.80843C15.7235 2.62096 15.9778 2.51565 16.243 2.51565C16.5081 2.51565 16.7624 2.62096 16.95 2.80843ZM14.12 18.3634L15.535 16.9494L17.777 19.1924H19.191V17.7784L16.949 15.5354L18.363 14.1214L21 16.7574V21.0004H16.758L14.121 18.3634H14.12ZM5.63596 9.87844L2.80696 7.05044C2.71398 6.95756 2.64022 6.84727 2.5899 6.72588C2.53957 6.60448 2.51367 6.47435 2.51367 6.34294C2.51367 6.21152 2.53957 6.08139 2.5899 5.95999C2.64022 5.8386 2.71398 5.72831 2.80696 5.63544L5.63596 2.80743C5.82349 2.61996 6.07779 2.51465 6.34296 2.51465C6.60812 2.51465 6.86243 2.61996 7.04996 2.80743L9.87996 5.63544L8.46396 7.05044L6.34296 4.92843L4.92896 6.34343L7.04996 8.46344L5.63596 9.87844Z" fill="#B7B7B7"/>
</svg>
