<svg width="83" height="45" viewBox="0 0 83 45" fill="none" xmlns="http://www.w3.org/2000/svg">
<path d="M70.3196 41.1213L68.5489 40.3341L76.0176 23.5292H59.8691L68.5489 4L70.3196 4.78724L62.851 21.5913H78.9994L70.3196 41.1213Z" fill="#FFA539"/>
<path d="M5.24729 10.0605C5.57921 10.4065 5.97793 10.6815 6.41928 10.8689C6.86063 11.0563 7.33543 11.1521 7.8149 11.1505C8.75958 11.1505 9.21901 10.7024 9.21901 10.2422C9.21901 9.63662 8.51735 9.43476 7.58478 9.21272C6.26464 8.90993 4.56905 8.5466 4.56905 6.742C4.56905 5.39764 5.73175 4.30762 7.63323 4.30762C8.91622 4.30762 9.98202 4.69518 10.7822 5.43801L9.82538 6.6976C9.19077 6.12649 8.36668 5.8114 7.51292 5.81346C6.7378 5.81346 6.32601 6.15259 6.32601 6.63704C6.32601 7.18205 7.00425 7.35161 7.93682 7.56961C9.26826 7.8724 10.9639 8.27207 10.9639 10.0646C10.9639 11.5421 9.9142 12.6564 7.73416 12.6564C6.1839 12.6564 5.06966 12.1356 4.30664 11.3726L5.24729 10.0605Z" fill="white"/>
<path d="M16.5577 4.2959C19.0042 4.2959 20.7846 6.03993 20.7846 8.47432C20.7846 10.9087 19.0082 12.6527 16.5577 12.6527C14.1233 12.6527 12.3438 10.9087 12.3438 8.47432C12.3438 6.03993 14.1233 4.2959 16.5577 4.2959ZM16.5577 5.82192C15.068 5.82192 14.1112 6.9604 14.1112 8.47432C14.1112 9.97613 15.068 11.1267 16.5577 11.1267C18.0474 11.1267 19.0163 9.97613 19.0163 8.47432C19.0163 6.9604 18.0474 5.82192 16.5577 5.82192Z" fill="white"/>
<path d="M22.2148 8.47432C22.2148 5.99149 24.0913 4.2959 26.453 4.2959C28.2939 4.2959 29.3234 5.2648 29.8926 6.27005L28.4151 6.99673C28.226 6.64076 27.9434 6.34319 27.5976 6.13615C27.2518 5.9291 26.856 5.82045 26.453 5.82192C25.0481 5.82192 23.9823 6.95232 23.9823 8.47432C23.9823 9.99631 25.0481 11.1267 26.453 11.1267C26.8565 11.1307 27.2533 11.0231 27.5996 10.8158C27.9458 10.6085 28.228 10.3095 28.4151 9.9519L29.8926 10.6665C29.3113 11.6717 28.2939 12.6527 26.453 12.6527C24.0913 12.6527 22.2148 10.9571 22.2148 8.47432Z" fill="white"/>
<path d="M31.5282 4.42871H33.2472V12.507H31.5273L31.5282 4.42871Z" fill="white"/>
<path d="M40.599 11.1142H36.9898L36.4812 12.507H34.5918L37.7165 4.42871H39.8724L42.985 12.507H41.1077L40.599 11.1142ZM37.4501 9.62449H40.1267L38.7944 5.91841L37.4501 9.62449Z" fill="white"/>
<path d="M44.3426 4.42871H46.0624V10.9931H49.477V12.507H44.3418L44.3426 4.42871Z" fill="white"/>
<path d="M51.2812 4.42871H53.0011V10.9931H56.4197V12.507H51.2845L51.2812 4.42871Z" fill="white"/>
<path d="M58.9368 9.20059L55.8242 4.42871H57.7863L59.7968 7.67456L61.783 4.42871H63.745L60.6566 9.20059V12.507H58.9368V9.20059Z" fill="white"/>
<path d="M4.85938 18.5586H8.04466C10.5751 18.5586 12.3313 20.1694 12.3313 22.6038C12.3313 25.0382 10.5751 26.6409 8.04466 26.6409H4.85938V18.5586ZM8.04466 25.1229C9.64256 25.1229 10.5751 23.9724 10.5751 22.6038C10.5751 21.1746 9.70311 20.0725 8.04466 20.0725H6.57919V25.1229H8.04466Z" fill="white"/>
<path d="M14.1602 18.5586H19.8759V20.0362H15.8792V21.7923H19.7911V23.2699H15.8792V25.1472H19.8759V26.6369H14.1602V18.5586Z" fill="white"/>
<path d="M22.2148 24.1904C22.5467 24.5364 22.9454 24.8114 23.3868 24.9988C23.8281 25.1862 24.3029 25.282 24.7824 25.2804C25.7271 25.2804 26.1873 24.8323 26.1873 24.3721C26.1873 23.7665 25.4848 23.5606 24.5523 23.3426C23.2353 23.0398 21.5398 22.6765 21.5398 20.8719C21.5398 19.5275 22.7024 18.4375 24.6039 18.4375C25.8877 18.4375 26.9535 18.8251 27.7529 19.5639L26.7961 20.8234C26.1618 20.2508 25.3374 19.9343 24.4828 19.9353C23.7077 19.9353 23.2959 20.2744 23.2959 20.7588C23.2959 21.3039 23.9741 21.4734 24.9067 21.6914C26.239 21.9942 27.9346 22.3939 27.9346 24.1864C27.9346 25.6639 26.8849 26.7782 24.7049 26.7782C23.1546 26.7782 22.0404 26.2574 21.2773 25.4944L22.2148 24.1904Z" fill="white"/>
<path d="M29.6992 18.5586H31.419V26.6328H29.6992V18.5586Z" fill="white"/>
<path d="M37.5347 18.4258C39.2061 18.4258 40.2598 19.2372 40.8775 20.194L39.4483 20.9692C39.238 20.6549 38.9532 20.3976 38.6193 20.2201C38.2855 20.0426 37.9128 19.9504 37.5347 19.9518C36.0692 19.9518 35.0034 21.0782 35.0034 22.6042C35.0034 24.1302 36.0692 25.2566 37.5347 25.2566C38.2735 25.2566 38.9275 24.9538 39.2787 24.6389V23.6603H37.1221V22.1827H40.9735V25.2711C40.545 25.7595 40.0155 26.1489 39.4216 26.4124C38.8277 26.6759 38.1836 26.8072 37.5339 26.7972C35.1722 26.7972 33.2344 25.15 33.2344 22.6066C33.2344 20.0632 35.173 18.4258 37.5347 18.4258Z" fill="white"/>
<path d="M44.669 21.2118V26.6377H42.9492V18.5635H44.7175L48.4599 23.7956V18.5635H50.1797V26.6377H48.5204L44.669 21.2118Z" fill="white"/>
<path d="M10.0064 39.3748H6.39805L5.88937 40.7676H4L7.12473 32.6934H9.27974L12.3924 40.7676H10.5151L10.0064 39.3748ZM6.85747 37.8851H9.53327L8.20183 34.179L6.85747 37.8851Z" fill="white"/>
<path d="M12.9512 36.7341C12.9512 34.2513 14.8284 32.5557 17.1893 32.5557C19.0303 32.5557 20.0597 33.5246 20.629 34.5298L19.1514 35.2565C18.9624 34.9005 18.6797 34.603 18.3339 34.3959C17.9881 34.1889 17.5924 34.0802 17.1893 34.0817C15.7844 34.0817 14.7194 35.2081 14.7194 36.7341C14.7194 38.2601 15.7844 39.3865 17.1893 39.3865C17.5929 39.3905 17.9897 39.2829 18.3359 39.0755C18.6821 38.8682 18.9644 38.5693 19.1514 38.2117L20.629 38.9262C20.0476 39.9315 19.0303 40.9125 17.1893 40.9125C14.8284 40.9125 12.9512 39.2169 12.9512 36.7341Z" fill="white"/>
<path d="M27.3263 39.3748H23.7203L23.2116 40.7676H21.3223L24.447 32.6934H26.6028L29.7146 40.7676H27.8382L27.3263 39.3748ZM24.1773 37.8851H26.8539L25.5217 34.179L24.1773 37.8851Z" fill="white"/>
<path d="M31.0664 32.6885H34.2509C36.7822 32.6885 38.5383 34.2993 38.5383 36.7337C38.5383 39.1681 36.7822 40.7708 34.2509 40.7708H31.0664V32.6885ZM34.2509 39.2528C35.8496 39.2528 36.7822 38.1023 36.7822 36.7337C36.7822 35.3045 35.9101 34.2024 34.2509 34.2024H32.787V39.2528H34.2509Z" fill="white"/>
<path d="M40.3699 32.6885H46.0857V34.1661H42.089V35.9222H46.005V37.3998H42.093V39.2771H46.0857V40.7668H40.3691L40.3699 32.6885Z" fill="white"/>
<path d="M55.0597 34.9541L52.7828 40.7676H52.0319L49.755 34.9541V40.7676H48.0352V32.6934H50.4445L52.4066 37.7317L54.3686 32.6934H56.7909V40.7676H55.0589L55.0597 34.9541Z" fill="white"/>
<path d="M61.2493 37.4604L58.1367 32.6885H60.0988L62.1092 35.9343L64.0955 32.6885H66.0575L62.9691 37.4604V40.7708H61.2493V37.4604Z" fill="white"/>
</svg>
